<svg width="25" height="17" viewBox="0 0 25 17" fill="none" xmlns="http://www.w3.org/2000/svg">
<g id="logos:youtube-icon">
<path id="Vector" d="M23.6448 2.65153C23.5061 2.13903 23.2356 1.6718 22.8602 1.29637C22.4848 0.920939 22.0175 0.650402 21.5051 0.5117C19.6288 0 12.0776 0 12.0776 0C12.0776 0 4.52602 0.0154888 2.64978 0.527189C2.13728 0.665899 1.67006 0.936451 1.29464 1.3119C0.919225 1.68735 0.648716 2.1546 0.51005 2.66711C-0.0574664 6.00081 -0.277616 11.0806 0.525634 14.2809C0.664313 14.7934 0.934829 15.2607 1.31024 15.6361C1.68566 16.0115 2.15288 16.2821 2.66537 16.4208C4.5416 16.9325 12.093 16.9325 12.093 16.9325C12.093 16.9325 19.6443 16.9325 21.5204 16.4208C22.033 16.2821 22.5002 16.0116 22.8756 15.6361C23.2511 15.2607 23.5216 14.7935 23.6603 14.2809C24.2589 10.9425 24.4433 5.86585 23.6448 2.65153Z" fill="#FF0000"/>
<path id="Vector_2" d="M9.67493 12.0946L15.9392 8.46626L9.67493 4.83789V12.0946Z" fill="white"/>
</g>
</svg>
