<svg width="20" height="17" viewBox="0 0 20 17" fill="none" xmlns="http://www.w3.org/2000/svg">
<path id="Vector" d="M10 0C15.523 0 20 3.78668 20 8.45807C20 13.1295 15.523 16.9161 10 16.9161C4.477 16.9161 0 13.1295 0 8.45807C0 3.78668 4.477 0 10 0ZM10 1.69161C7.87827 1.69161 5.84344 2.40451 4.34315 3.67346C2.84285 4.94242 2 6.66349 2 8.45807C2 10.2526 2.84285 11.9737 4.34315 13.2427C5.84344 14.5116 7.87827 15.2245 10 15.2245C12.1217 15.2245 14.1566 14.5116 15.6569 13.2427C17.1571 11.9737 18 10.2526 18 8.45807C18 6.66349 17.1571 4.94242 15.6569 3.67346C14.1566 2.40451 12.1217 1.69161 10 1.69161ZM10 11.8413C10.2652 11.8413 10.5196 11.9304 10.7071 12.089C10.8946 12.2476 11 12.4628 11 12.6871C11 12.9114 10.8946 13.1266 10.7071 13.2852C10.5196 13.4438 10.2652 13.5329 10 13.5329C9.73478 13.5329 9.48043 13.4438 9.29289 13.2852C9.10536 13.1266 9 12.9114 9 12.6871C9 12.4628 9.10536 12.2476 9.29289 12.089C9.48043 11.9304 9.73478 11.8413 10 11.8413ZM10 3.80613C10.8423 3.80615 11.6583 4.05425 12.3078 4.50781C12.9573 4.96137 13.3998 5.59208 13.5593 6.2916C13.7188 6.99112 13.5853 7.71578 13.1818 8.3411C12.7783 8.96643 12.1299 9.45338 11.348 9.71832C11.2322 9.75434 11.1278 9.81252 11.043 9.88833C10.999 9.93062 10.992 9.98475 10.993 10.0406L11 10.1497C10.9997 10.3653 10.9021 10.5726 10.7272 10.7294C10.5522 10.8861 10.313 10.9805 10.0586 10.9931C9.80416 11.0057 9.55362 10.9357 9.35817 10.7973C9.16271 10.659 9.0371 10.4627 9.007 10.2486L9 10.1497V9.93823C9 8.96302 9.93 8.37772 10.604 8.1485C10.8783 8.05585 11.1176 7.90175 11.2962 7.70275C11.4748 7.50375 11.5859 7.26736 11.6176 7.01898C11.6493 6.77059 11.6004 6.51959 11.4762 6.29292C11.352 6.06626 11.1571 5.87249 10.9125 5.73244C10.6679 5.59238 10.3829 5.51133 10.0879 5.49797C9.79295 5.48462 9.49927 5.53947 9.23839 5.65665C8.97752 5.77382 8.75931 5.94888 8.60719 6.16304C8.45508 6.37719 8.37481 6.62235 8.375 6.87218C8.375 7.0965 8.26964 7.31164 8.08211 7.47026C7.89457 7.62888 7.64022 7.71799 7.375 7.71799C7.10978 7.71799 6.85543 7.62888 6.66789 7.47026C6.48036 7.31164 6.375 7.0965 6.375 6.87218C6.375 6.05901 6.75692 5.27915 7.43674 4.70416C8.11656 4.12916 9.03859 3.80613 10 3.80613Z" fill="black"/>
</svg>
