<svg width="28" height="28" viewBox="0 0 28 28" fill="none" xmlns="http://www.w3.org/2000/svg">
<g id="trash-2">
<path id="Vector" d="M3.5 7H5.83333H24.5" stroke="black" stroke-width="2.33333" stroke-linecap="round" stroke-linejoin="round"/>
<path id="Vector_2" d="M22.1668 7.00001V23.3333C22.1668 23.9522 21.921 24.5457 21.4834 24.9833C21.0458 25.4208 20.4523 25.6667 19.8335 25.6667H8.16683C7.54799 25.6667 6.9545 25.4208 6.51691 24.9833C6.07933 24.5457 5.8335 23.9522 5.8335 23.3333V7.00001M9.3335 7.00001V4.66668C9.3335 4.04784 9.57933 3.45435 10.0169 3.01676C10.4545 2.57918 11.048 2.33334 11.6668 2.33334H16.3335C16.9523 2.33334 17.5458 2.57918 17.9834 3.01676C18.421 3.45435 18.6668 4.04784 18.6668 4.66668V7.00001" stroke="black" stroke-width="2.33333" stroke-linecap="round" stroke-linejoin="round"/>
<path id="Vector_3" d="M11.6665 12.8333V19.8333" stroke="black" stroke-width="2.33333" stroke-linecap="round" stroke-linejoin="round"/>
<path id="Vector_4" d="M16.3335 12.8333V19.8333" stroke="black" stroke-width="2.33333" stroke-linecap="round" stroke-linejoin="round"/>
</g>
</svg>
