<svg width="36" height="11" viewBox="0 0 36 11" fill="none" xmlns="http://www.w3.org/2000/svg">
<path id="Vector" d="M18.6183 3.44881C18.5978 4.95164 20.0616 5.79023 21.1642 6.28887C22.2971 6.80042 22.6776 7.1285 22.6731 7.58603C22.6647 8.28616 21.7695 8.59518 20.9318 8.60718C19.4702 8.62819 18.6204 8.241 17.9449 7.94816L17.4184 10.2344C18.0962 10.5242 19.3513 10.777 20.6527 10.7881C23.7078 10.7881 25.7065 9.38861 25.7174 7.2188C25.7293 4.46501 21.6128 4.31259 21.6409 3.08172C21.6506 2.70849 22.0344 2.31021 22.8753 2.20894C23.2916 2.15778 24.4406 2.11863 25.7434 2.67534L26.2547 0.463384C25.5541 0.226658 24.6537 -1.92889e-05 23.5326 -1.92889e-05C20.6571 -1.92889e-05 18.6346 1.41851 18.6183 3.44881ZM31.1678 0.190509C30.61 0.190509 30.1399 0.492484 29.9301 0.955887L25.566 10.6256H28.6189L29.2264 9.06758H32.9569L33.3093 10.6256H36L33.652 0.190509H31.1678ZM31.5949 3.00942L32.4759 6.92792H30.0631L31.5949 3.00942ZM14.9169 0.19064L12.5106 10.6255H15.4197L17.8249 0.190379L14.9169 0.19064ZM10.6134 0.19064L7.58545 7.29306L6.36061 1.25395C6.21689 0.579789 5.64933 0.190509 5.01905 0.190509H0.0693281L0 0.493528C1.01616 0.698151 2.17069 1.02818 2.87016 1.38131C3.29822 1.59703 3.42028 1.7856 3.56091 2.2982L5.8808 10.6256H8.955L13.6682 0.190509L10.6134 0.19064Z" fill="url(#paint0_linear_143_1150)"/>
<defs>
<linearGradient id="paint0_linear_143_1150" x1="1655.06" y1="32.429" x2="1684.05" y2="-1075.65" gradientUnits="userSpaceOnUse">
<stop stop-color="#222357"/>
<stop offset="1" stop-color="#254AA5"/>
</linearGradient>
</defs>
</svg>
